<svg width="50" height="50" viewBox="85 0 20 20" fill="none" xmlns="http://www.w3.org/2000/svg">
    <path d="M90.75 7.5V4.5C90.75 3.90326 90.9871 3.33097 91.409 2.90901C91.831 2.48705 92.4033 2.25 93 2.25C93.5968 2.25 94.1691 2.48705 94.591 2.90901C95.013 3.33097 95.25 3.90326 95.25 4.5V7.5M97.5 6L98.1878 14.9423C98.1957 15.0453 98.1823 15.1489 98.1483 15.2465C98.1144 15.3441 98.0606 15.4336 97.9904 15.5095C97.9202 15.5853 97.835 15.6459 97.7403 15.6872C97.6456 15.7286 97.5434 15.75 97.44 15.75H88.56C88.4567 15.75 88.3544 15.7286 88.2597 15.6872C88.165 15.6459 88.0799 15.5853 88.0097 15.5095C87.9395 15.4336 87.8857 15.3441 87.8517 15.2465C87.8178 15.1489 87.8043 15.0453 87.8123 14.9423L88.5 6H97.5Z" stroke="white" stroke-width="1.5" stroke-linecap="round" stroke-linejoin="round"/>
</svg>
