<svg width="117" height="12" viewBox="0 0 117 12" fill="none" xmlns="http://www.w3.org/2000/svg">
<g clip-path="url(#clip0_70_99)">
<path fill-rule="evenodd" clip-rule="evenodd" d="M4.322 2.82422H7.70663C9.52389 2.82422 10.208 3.7442 10.1023 5.09579C9.92753 7.32717 8.57857 8.56168 6.78927 8.56168H5.88588C5.64038 8.56168 5.47525 8.72418 5.40885 9.16452L5.02531 11.7244C4.99997 11.8904 4.9126 11.9865 4.78155 11.9996H2.65501C2.45494 11.9996 2.38417 11.8467 2.43659 11.5156L3.73314 3.30911C3.78381 2.98061 3.96379 2.82422 4.322 2.82422Z" fill="#009EE3"/>
<path fill-rule="evenodd" clip-rule="evenodd" d="M19.0165 2.67285C20.1584 2.67285 21.212 3.29229 21.0679 4.83609C20.8931 6.67081 19.9103 7.68603 18.3595 7.6904H17.0044C16.8096 7.6904 16.7152 7.84941 16.6645 8.17529L16.4024 9.8414C16.3631 10.093 16.2338 10.2171 16.0434 10.2171H14.7826C14.5817 10.2171 14.5118 10.0887 14.5563 9.80121L15.5969 3.12367C15.6484 2.79517 15.7716 2.67285 15.9962 2.67285H19.0139H19.0165ZM16.9633 6.24795H17.9899C18.6321 6.22349 19.0584 5.77878 19.1012 4.97675C19.1274 4.48137 18.7928 4.12665 18.2608 4.12928L17.2945 4.13365L16.9633 6.24795ZM24.4953 9.70598C24.6107 9.60114 24.7277 9.54697 24.7111 9.67627L24.6701 9.98556C24.6491 10.1472 24.7129 10.2328 24.8632 10.2328H25.9832C26.1719 10.2328 26.2637 10.1568 26.31 9.86499L27.0002 5.53328C27.0351 5.31573 26.9818 5.20915 26.8167 5.20915H25.5848C25.4739 5.20915 25.4197 5.27118 25.3909 5.44067L25.3454 5.70714C25.3218 5.84606 25.2581 5.87052 25.1986 5.73073C24.9898 5.23623 24.4569 5.01432 23.7134 5.03179C21.9861 5.06761 20.8215 6.379 20.6966 8.05997C20.6005 9.36 21.5318 10.3813 22.7602 10.3813C23.6514 10.3813 24.0498 10.1192 24.4988 9.7086L24.4953 9.70598ZM23.557 9.03936C22.8135 9.03936 22.2954 8.44613 22.4029 7.71923C22.5103 6.99233 23.2058 6.3991 23.9493 6.3991C24.6928 6.3991 25.2109 6.99233 25.1034 7.71923C24.996 8.44613 24.3014 9.03936 23.557 9.03936ZM29.1922 5.19517H28.0565C27.8223 5.19517 27.7271 5.3699 27.8013 5.58483L29.2115 9.71384L27.8284 11.6787C27.7122 11.843 27.8022 11.9924 27.9656 11.9924H29.242C29.3164 12.001 29.3917 11.988 29.459 11.955C29.5262 11.922 29.5825 11.8704 29.6212 11.8063L33.9582 5.5857C34.0918 5.39437 34.0289 5.19342 33.8096 5.19342H32.6013C32.3943 5.19342 32.3113 5.27555 32.1925 5.44766L30.3839 8.0687L29.5758 5.44155C29.5286 5.28254 29.4107 5.19517 29.1931 5.19517H29.1922Z" fill="#113984"/>
<path fill-rule="evenodd" clip-rule="evenodd" d="M38.47 2.67265C39.6119 2.67265 40.6655 3.29209 40.5214 4.83588C40.3466 6.67061 39.3637 7.68582 37.813 7.69019H36.4587C36.2639 7.69019 36.1696 7.8492 36.1189 8.17508L35.8568 9.84119C35.8175 10.0928 35.6882 10.2169 35.4977 10.2169H34.237C34.036 10.2169 33.9661 10.0884 34.0107 9.801L35.053 3.12172C35.1045 2.79321 35.2277 2.6709 35.4523 2.6709H38.47V2.67265ZM36.4168 6.24775H37.4434C38.0855 6.22328 38.5119 5.77858 38.5547 4.97654C38.5809 4.48117 38.2463 4.12645 37.7142 4.12907L36.7479 4.13344L36.4168 6.24775ZM43.9488 9.70577C44.0641 9.60093 44.1812 9.54676 44.1646 9.67607L44.1235 9.98535C44.1026 10.147 44.1664 10.2326 44.3166 10.2326H45.4367C45.6254 10.2326 45.7171 10.1566 45.7634 9.86478L46.4536 5.53308C46.4886 5.31553 46.4353 5.20894 46.2702 5.20894H45.04C44.9291 5.20894 44.8749 5.27097 44.8461 5.44047L44.8006 5.70694C44.7771 5.84585 44.7133 5.87032 44.6539 5.73053C44.4451 5.23603 43.9121 5.01411 43.1686 5.03158C41.4413 5.06741 40.2767 6.3788 40.1518 8.05976C40.0557 9.3598 40.987 10.3811 42.2154 10.3811C43.1066 10.3811 43.505 10.119 43.954 9.7084L43.9488 9.70577ZM43.0113 9.03916C42.2678 9.03916 41.7498 8.44593 41.8572 7.71903C41.9647 6.99212 42.6601 6.39889 43.4036 6.39889C44.1471 6.39889 44.6652 6.99212 44.5578 7.71903C44.4503 8.44593 43.7549 9.03916 43.0113 9.03916ZM48.1774 10.2396H46.8844C46.8619 10.2406 46.8394 10.2366 46.8187 10.228C46.7979 10.2193 46.7793 10.2061 46.7642 10.1894C46.7491 10.1728 46.7378 10.1529 46.7313 10.1314C46.7247 10.1099 46.723 10.0871 46.7262 10.0649L47.862 2.86923C47.8729 2.82012 47.9 2.77612 47.939 2.7444C47.978 2.71267 48.0267 2.69508 48.0769 2.69449H49.37C49.3925 2.69348 49.4149 2.69746 49.4357 2.70613C49.4565 2.71479 49.4751 2.72794 49.4902 2.74464C49.5053 2.76133 49.5165 2.78115 49.5231 2.80269C49.5296 2.82423 49.5314 2.84695 49.5281 2.86923L48.3923 10.0649C48.3818 10.1143 48.3549 10.1587 48.3158 10.1908C48.2767 10.2228 48.2279 10.2407 48.1774 10.2413V10.2396Z" fill="#009EE3"/>
<path fill-rule="evenodd" clip-rule="evenodd" d="M2.20527 0H5.5934C6.54746 0 7.67975 0.0305788 8.43635 0.698944C8.94221 1.14539 9.20781 1.8557 9.14666 2.62104C8.93872 5.20801 7.39143 6.65744 5.31557 6.65744H3.64509C3.36027 6.65744 3.17243 6.84616 3.09205 7.35639L2.62551 10.3269C2.59493 10.5191 2.51193 10.6327 2.3634 10.6467H0.272686C0.0411603 10.6467 -0.0409664 10.4719 0.0193175 10.0858L1.52205 0.564397C1.58233 0.181725 1.79289 0 2.20527 0Z" fill="#113984"/>
<path fill-rule="evenodd" clip-rule="evenodd" d="M3.14087 7.05545L3.73235 3.30999C3.7839 2.98148 3.96388 2.82422 4.32209 2.82422H7.70672C8.26675 2.82422 8.72019 2.91159 9.07491 3.07322C8.73504 5.37624 7.24542 6.65531 5.29537 6.65531H3.62751C3.40385 6.65618 3.2396 6.76801 3.14087 7.05545Z" fill="#172C70"/>
</g>
<g clip-path="url(#clip1_70_99)">
<mask id="mask0_70_99" style="mask-type:luminance" maskUnits="userSpaceOnUse" x="56" y="-2" width="18" height="15">
<path d="M73.2121 -1.02246H56.05V12.9718H73.2121V-1.02246Z" fill="white"/>
</mask>
<g mask="url(#mask0_70_99)">
<path d="M62.2791 10.7763C62.3622 10.7744 62.4446 10.7913 62.5202 10.8259C62.5868 10.8574 62.6458 10.9029 62.6932 10.9593V10.1953H62.896V11.9755H62.6932V11.8185C62.6455 11.8743 62.5865 11.9194 62.5202 11.9508C62.4446 11.9853 62.3622 12.0022 62.2791 12.0003C62.1997 12.0009 62.1211 11.9853 62.0479 11.9544C61.9778 11.925 61.9143 11.8818 61.8612 11.8272C61.8076 11.7714 61.7654 11.7056 61.737 11.6336C61.6769 11.4756 61.6769 11.3009 61.737 11.1428C61.7654 11.0709 61.8076 11.0052 61.8612 10.9494C61.9143 10.8948 61.9778 10.8515 62.0479 10.822C62.1211 10.7913 62.1997 10.7757 62.2791 10.7763ZM62.3026 10.9668C62.2455 10.966 62.1889 10.9771 62.1363 10.9995C62.0878 11.0203 62.0442 11.0511 62.0084 11.0898C61.9726 11.1287 61.9448 11.1743 61.9268 11.2239C61.9075 11.2766 61.8979 11.3323 61.8984 11.3883C61.8979 11.4444 61.9078 11.5001 61.9274 11.5527C61.9458 11.6023 61.9737 11.6479 62.0096 11.6868C62.0456 11.7256 62.0892 11.7565 62.1376 11.7777C62.1896 11.8004 62.2459 11.8118 62.3026 11.8111C62.3586 11.8118 62.4142 11.8008 62.4658 11.779C62.5139 11.7585 62.5573 11.7281 62.5931 11.6899C62.6292 11.651 62.6573 11.6055 62.6759 11.5558C62.7155 11.4478 62.7155 11.3294 62.6759 11.2214C62.6572 11.172 62.6291 11.1266 62.5931 11.0879C62.5573 11.0497 62.5139 11.0195 62.4658 10.9989C62.4142 10.9771 62.3586 10.9661 62.3026 10.9668ZM63.7984 10.7763C63.8745 10.7756 63.9499 10.7907 64.0197 10.8209C64.086 10.8496 64.1454 10.8922 64.194 10.9457C64.2442 11.0018 64.283 11.0671 64.3084 11.138C64.3368 11.2171 64.3512 11.3006 64.351 11.3846C64.351 11.3978 64.3506 11.4108 64.3498 11.4235C64.3489 11.4363 64.3481 11.4484 64.3473 11.46H63.4238C63.4296 11.5155 63.4453 11.5695 63.4702 11.6195C63.4921 11.6627 63.5221 11.7013 63.5586 11.7332C63.594 11.7637 63.6352 11.7869 63.6798 11.8012C63.7261 11.8162 63.7745 11.8237 63.8231 11.8235C63.89 11.824 63.9564 11.8113 64.0185 11.7864C64.0794 11.7616 64.1358 11.727 64.1854 11.6838L64.2929 11.8222C64.2585 11.8545 64.2208 11.8832 64.1804 11.9076C64.1429 11.9301 64.1032 11.9485 64.0618 11.9625C64.0215 11.9761 63.9802 11.9858 63.9381 11.9916C63.8959 11.9974 63.8534 12.0003 63.8108 12.0003C63.7285 12.0012 63.6469 11.9863 63.5703 11.9564C63.4994 11.9284 63.4352 11.8859 63.3818 11.8315C63.3281 11.776 63.2862 11.7102 63.2588 11.638C63.2003 11.4773 63.2003 11.3012 63.2588 11.1405C63.286 11.0684 63.3274 11.0026 63.3806 10.9469C63.433 10.893 63.4959 10.8503 63.5654 10.8214C63.6392 10.7909 63.7185 10.7756 63.7984 10.7763ZM63.7947 10.9556C63.7465 10.9549 63.6987 10.9635 63.6538 10.981C63.613 10.997 63.5758 11.021 63.5444 11.0514C63.5128 11.0825 63.4868 11.1189 63.4677 11.1589C63.4469 11.2025 63.433 11.249 63.4263 11.2968H64.1445C64.1388 11.2481 64.1257 11.2006 64.1056 11.156C64.0877 11.1159 64.0625 11.0794 64.0315 11.0483C64.0014 11.0187 63.9656 10.9954 63.9264 10.9798C63.8844 10.9633 63.8397 10.9551 63.7947 10.9556ZM65.2857 10.7763C65.3648 10.7757 65.4433 10.7912 65.5162 10.822C65.586 10.8516 65.6493 10.895 65.7021 10.9494C65.7558 11.0052 65.7983 11.0709 65.8271 11.1428C65.888 11.3008 65.888 11.4757 65.8271 11.6336C65.7983 11.7056 65.7559 11.7714 65.7021 11.8272C65.6493 11.8817 65.586 11.9249 65.5162 11.9544C65.4433 11.9854 65.3648 12.001 65.2857 12.0003C65.2022 12.0023 65.1193 11.9854 65.0433 11.9508C64.9772 11.9196 64.9185 11.8745 64.8714 11.8185V11.9755H64.6699V10.1953H64.8714V10.9581C64.9185 10.9021 64.9772 10.857 65.0433 10.8259C65.1193 10.7912 65.2022 10.7743 65.2857 10.7763ZM65.2621 10.9668C65.2061 10.9661 65.1505 10.9771 65.0988 10.9989C65.0507 11.0194 65.0074 11.0497 64.9717 11.0879C64.9357 11.1266 64.9076 11.172 64.8888 11.2214C64.8491 11.3293 64.8491 11.4479 64.8888 11.5558C64.9074 11.6055 64.9356 11.6511 64.9717 11.6899C65.0074 11.7282 65.0507 11.7585 65.0988 11.779C65.1505 11.8008 65.2061 11.8118 65.2621 11.8111C65.3191 11.8119 65.3756 11.8005 65.4278 11.7777C65.476 11.7563 65.5193 11.7254 65.5552 11.6868C65.5909 11.6479 65.6186 11.6023 65.6366 11.5527C65.6559 11.5001 65.6656 11.4444 65.6652 11.3883C65.6656 11.3322 65.6557 11.2765 65.6361 11.2239C65.6176 11.1743 65.5896 11.1287 65.5538 11.0898C65.5181 11.0512 65.4748 11.0205 65.4266 10.9995C65.3747 10.9772 65.3187 10.966 65.2621 10.9668ZM66.2906 10.2435C66.329 10.2434 66.3659 10.2585 66.3932 10.2855C66.4068 10.2989 66.4175 10.3149 66.4247 10.3326C66.432 10.3502 66.4356 10.3691 66.4354 10.3881C66.4354 10.4073 66.4316 10.4262 66.4242 10.4439C66.417 10.4609 66.4064 10.4762 66.3931 10.4891C66.3799 10.5019 66.3641 10.512 66.3469 10.5186C66.329 10.5257 66.3099 10.5292 66.2906 10.5291C66.2716 10.5292 66.2527 10.5257 66.235 10.5186C66.2181 10.5119 66.2028 10.5018 66.1899 10.489C66.1771 10.476 66.1668 10.4607 66.1597 10.4439C66.1521 10.4263 66.1483 10.4073 66.1485 10.3881C66.1483 10.3686 66.1521 10.3492 66.1597 10.3312C66.1669 10.3143 66.1771 10.2988 66.1899 10.2855C66.203 10.2721 66.2187 10.2615 66.236 10.2543C66.2533 10.2471 66.2719 10.2434 66.2906 10.2435ZM66.3932 11.9755H66.1918V10.8011H66.3932V11.9755ZM67.5985 10.9852H67.1052V11.5577C67.1043 11.5965 67.11 11.6351 67.122 11.672C67.1315 11.7012 67.1473 11.728 67.1683 11.7505C67.1878 11.7709 67.2117 11.7866 67.2381 11.7963C67.2665 11.8064 67.2964 11.8115 67.3265 11.8111C67.3699 11.8111 67.413 11.8036 67.4539 11.7889C67.4936 11.7747 67.5314 11.7556 67.5663 11.732L67.6616 11.884C67.6135 11.9184 67.5611 11.9463 67.5057 11.9668C67.4428 11.9899 67.3762 12.0012 67.3092 12.0003C67.2513 12.0011 67.1936 11.9921 67.1386 11.9736C67.0902 11.9572 67.0463 11.9294 67.0107 11.8927C66.974 11.8537 66.9466 11.8071 66.9303 11.7561C66.9105 11.6932 66.9011 11.6274 66.9025 11.5614V10.9852H66.6515V10.8011H66.9025V10.4327H67.1052V10.8011H67.5985V10.9852Z" fill="black"/>
<path d="M66.5412 0.938477H62.7019V7.83876H66.5412V0.938477Z" fill="#FF5F00"/>
<path d="M62.9552 4.3882C62.9546 3.72364 63.1053 3.06764 63.3957 2.4699C63.6861 1.87216 64.1088 1.34835 64.6316 0.938126C63.9843 0.429318 63.2068 0.112905 62.3881 0.0250526C61.5695 -0.0628002 60.7426 0.0814501 60.002 0.441319C59.2614 0.801188 58.6371 1.36215 58.2002 2.0601C57.7634 2.75805 57.5317 3.56482 57.5317 4.3882C57.5317 5.21158 57.7634 6.01835 58.2002 6.71629C58.6371 7.41424 59.2614 7.97521 60.002 8.33508C60.7426 8.69495 61.5695 8.8392 62.3881 8.75135C63.2068 8.66349 63.9843 8.34708 64.6316 7.83827C64.1088 7.42805 63.6861 6.90423 63.3957 6.30649C63.1053 5.70875 62.9546 5.05276 62.9552 4.3882Z" fill="#EB001B"/>
<path d="M71.3126 7.10771V6.96649H71.3696V6.93774H71.2246V6.96649H71.2816V7.10771H71.3126ZM71.5943 7.10771V6.9375H71.5499L71.4986 7.05461L71.4476 6.9375H71.4031V7.10771H71.4345V6.9793L71.4823 7.09001H71.515L71.5629 6.97904V7.10771H71.5943Z" fill="#F79E1B"/>
<path d="M67.3435 5.25572e-06C66.3597 -0.00152011 65.4042 0.329023 64.6316 0.938128C65.154 1.34876 65.5763 1.87266 65.8667 2.4703C66.1571 3.06795 66.308 3.72374 66.308 4.3882C66.308 5.05267 66.1571 5.70845 65.8667 6.3061C65.5763 6.90375 65.154 7.42765 64.6316 7.83828C65.1816 8.27058 65.8269 8.56513 66.5138 8.69738C67.2007 8.82963 67.9093 8.79575 68.5805 8.59856C69.2516 8.40137 69.8659 8.04658 70.3721 7.56378C70.8783 7.08098 71.2618 6.48416 71.4905 5.82308C71.7192 5.162 71.7866 4.45582 71.687 3.76342C71.5874 3.07101 71.3237 2.41245 70.9179 1.84265C70.5121 1.27285 69.976 0.808319 69.3542 0.487787C68.7324 0.167255 68.043 1.28797e-05 67.3435 5.25572e-06Z" fill="#F79E1B"/>
</g>
</g>
<g clip-path="url(#clip2_70_99)">
<path d="M103.591 0.126953C100.686 0.126953 98.6449 1.67155 98.6269 3.88014C98.6085 5.51632 100.086 6.42864 101.198 6.97244C102.345 7.52836 102.728 7.8856 102.724 8.38296C102.713 9.14528 101.806 9.4926 100.964 9.4926C99.7903 9.4926 99.1644 9.32115 98.2023 8.89805L97.8208 8.71674L97.4099 11.2623C98.0968 11.579 99.3653 11.8535 100.684 11.8678C103.767 11.8678 105.773 10.341 105.797 7.98343C105.809 6.68573 105.025 5.70359 103.328 4.89269C102.305 4.36546 101.671 4.01587 101.681 3.48165C101.682 3.00962 102.212 2.50373 103.364 2.50373C104.325 2.48754 105.017 2.70829 105.562 2.94081L105.824 3.0715L106.223 0.605642C105.643 0.376402 104.727 0.126953 103.591 0.126953ZM94.4705 0.325338L92.6329 11.6997H95.5688L97.4075 0.325209L94.4705 0.325338ZM90.1692 0.336375L87.2943 8.08836L86.9878 6.51319C86.2719 4.58167 84.722 2.55559 82.917 1.73446L85.5468 11.6888L88.6557 11.6874L93.2789 0.33646L90.1692 0.336375ZM111.487 0.337111C110.784 0.337111 110.256 0.53762 109.946 1.28119L105.586 11.7034H108.671C108.671 11.7034 109.175 10.3006 109.289 9.99342C109.626 9.99342 112.622 9.99989 113.049 9.99989C113.14 10.3965 113.407 11.7033 113.407 11.7033H116.134L113.756 0.337117L111.487 0.337111ZM111.695 3.40363L111.89 4.38419C111.89 4.38419 112.455 7.09811 112.572 7.66652H110.134C110.378 7.01383 111.304 4.48717 111.304 4.48717C111.286 4.51808 111.545 3.82931 111.695 3.40363Z" fill="#0023A0"/>
<path d="M84.628 0.330104H79.8911L79.8635 0.525834C83.5464 1.46772 85.9761 3.7807 86.9878 6.51586L85.9583 1.28816C85.7814 0.569215 85.266 0.355493 84.628 0.330104Z" fill="#FFAB00"/>
</g>
<defs>
<clipPath id="clip0_70_99">
<rect width="49.5316" height="12" fill="white"/>
</clipPath>
<clipPath id="clip1_70_99">
<rect width="14.2001" height="12" fill="white" transform="translate(57.5315)"/>
</clipPath>
<clipPath id="clip2_70_99">
<rect width="36.5293" height="12" fill="white" transform="translate(79.7317)"/>
</clipPath>
</defs>
</svg>
