<svg width="50" height="50" viewBox="0 0 18 24" fill="none" xmlns="http://www.w3.org/2000/svg">
    <path d="M0 8.60788V8.55689C0 7.51916 0.19895 6.52841 0.559859 5.61964L0.540864 5.67362C0.883779 4.78501 1.39157 3.96923 2.03749 3.26923L2.03249 3.27423C3.3288 1.88605 4.987 0.887462 6.82028 0.390954L6.89126 0.374958C7.83837 0.123092 8.81451 -0.00296021 9.79453 5.27575e-05H9.80553H9.87751C11.3931 5.27575e-05 12.8268 0.354963 14.0984 0.984804L14.0425 0.959811C15.324 1.58412 16.4171 2.53689 17.2107 3.72111L17.2287 3.75011C18.0313 4.94423 18.4582 6.35127 18.4543 7.79009L18.4533 7.89306V7.88806V7.90406C18.4533 8.85782 18.3534 9.78858 18.1634 10.6854L18.1784 10.5984C17.9928 11.5049 17.6925 12.3841 17.2846 13.2147L17.3136 13.1507C16.9397 13.9399 16.4523 14.6701 15.867 15.3182L15.874 15.3102C15.2968 15.9336 14.5993 16.4335 13.8235 16.7798L13.7835 16.7958C12.9493 17.1652 12.0466 17.3546 11.1342 17.3517H11.0542H11.0582C10.3732 17.3473 9.69827 17.1855 9.08571 16.8788L9.1117 16.8908C8.5278 16.6346 8.04415 16.1938 7.73505 15.6361L7.72705 15.6211C7.63107 15.9944 7.49778 16.5349 7.32715 17.2427C7.15653 17.9505 7.04356 18.4071 6.98824 18.6124C6.93492 18.819 6.83628 19.1602 6.69231 19.6361C6.58034 20.036 6.45237 20.3759 6.29941 20.7018L6.31741 20.6598L5.85552 21.5616C5.63158 21.9985 5.41163 22.3654 5.1697 22.7153L5.19169 22.6813C4.95108 23.0319 4.65316 23.4475 4.29792 23.928L4.09597 24L3.966 23.856C3.82204 22.3464 3.75005 21.443 3.75005 21.1457C3.76305 20.084 3.87502 19.0572 4.07797 18.0635L4.05998 18.1685C4.26659 17.0681 4.58651 15.6864 5.01973 14.0235C5.45296 12.3606 5.70289 11.3848 5.76954 11.0963C5.42889 10.3267 5.27114 9.48864 5.30866 8.64787V8.65887C5.30866 7.80808 5.58759 7.02328 6.05847 6.38944L6.05147 6.39944C6.25455 6.07797 6.53547 5.81295 6.86821 5.62892C7.20095 5.4449 7.57475 5.34783 7.95499 5.3467C7.98199 5.3447 8.01298 5.34471 8.04497 5.34471C8.55584 5.34471 9.01373 5.57065 9.32365 5.92856L9.32565 5.93056C9.63157 6.30846 9.81752 6.79434 9.81752 7.32421L9.81552 7.41318V7.40918C9.74801 8.37652 9.52662 9.32689 9.15969 10.2245L9.18168 10.1635C8.83424 11.0135 8.62108 11.9123 8.54984 12.8278L8.54784 12.8598L8.54684 12.9078C8.54684 13.4857 8.79678 14.0055 9.19468 14.3644L9.19668 14.3664C9.59558 14.7373 10.1314 14.9653 10.7213 14.9653L10.7713 14.9643H10.7693H10.7933C11.3231 14.9643 11.821 14.8303 12.2569 14.5954L12.2409 14.6034C12.6843 14.368 13.069 14.0358 13.3666 13.6316L13.3726 13.6226C13.6646 13.2267 13.9335 12.7768 14.1594 12.3029L14.1804 12.253C14.3994 11.7981 14.5883 11.2672 14.7173 10.7133L14.7283 10.6604C14.8343 10.2355 14.9362 9.69261 15.0082 9.14075L15.0172 9.06077C15.0752 8.63188 15.1092 8.134 15.1112 7.62813V7.62613C15.1524 6.90271 15.0325 6.17917 14.7602 5.50769C14.4879 4.83621 14.07 4.23353 13.5366 3.74311L13.5336 3.74011C12.3818 2.7718 10.9066 2.27469 9.40363 2.34846H9.41662C8.52942 2.32179 7.64588 2.47342 6.81833 2.79438C5.99078 3.11533 5.23606 3.59909 4.59884 4.21699L4.60084 4.21499C3.96363 4.82606 3.46222 5.56445 3.12927 6.38212C2.79631 7.19979 2.63925 8.07841 2.66833 8.96079V8.95079V8.96279C2.66833 9.39568 2.73431 9.81258 2.85628 10.2055L2.84828 10.1755C2.95026 10.5324 3.08322 10.8443 3.24918 11.1332L3.23818 11.1122C3.37748 11.3429 3.50745 11.5615 3.62808 11.7681C3.71606 11.8931 3.77905 12.041 3.80704 12.201L3.80804 12.208C3.7904 12.5764 3.71482 12.9398 3.5841 13.2847L3.59209 13.2607C3.44813 13.6933 3.27017 13.9095 3.05823 13.9095C3.0389 13.9095 2.95725 13.8952 2.81329 13.8666C2.31565 13.7168 1.86609 13.4389 1.50962 13.0608L1.50862 13.0588C1.13664 12.6742 0.841431 12.2223 0.638839 11.7271L0.628841 11.6991C0.429712 11.2145 0.276089 10.7125 0.169957 10.1995L0.15996 10.1415C0.0548179 9.63739 0.00155366 9.12384 0.000999748 8.60888L0 8.60788Z" fill="#595555"/>
</svg>
