<svg width="50" height="50" viewBox="0 0 18 18" fill="none" xmlns="http://www.w3.org/2000/svg">
    <path d="M15.75 9.00039C15.7522 10.3405 15.3537 11.6506 14.6055 12.7624C13.9885 13.6826 13.1543 14.4366 12.1766 14.9578C11.1989 15.4789 10.1079 15.7512 9 15.7504C7.89209 15.7512 6.80106 15.4789 5.82338 14.9578C4.8457 14.4366 4.01148 13.6826 3.3945 12.7624C2.80705 11.8867 2.43293 10.8856 2.30213 9.83922C2.17133 8.79288 2.2875 7.73045 2.64131 6.7371C2.99512 5.74375 3.57675 4.84711 4.33955 4.11905C5.10235 3.391 6.02512 2.85179 7.03388 2.54464C8.04264 2.2375 9.10933 2.17096 10.1484 2.35037C11.1875 2.52977 12.1702 2.95014 13.0175 3.57775C13.8649 4.20537 14.5534 5.02278 15.028 5.96447C15.5025 6.90615 15.7498 7.94591 15.75 9.00039Z" stroke="black" stroke-width="1.5"/>
    <path d="M9.56258 6.75C9.56258 6.89918 9.50332 7.04226 9.39783 7.14775C9.29234 7.25324 9.14927 7.3125 9.00008 7.3125V9.1875C9.64655 9.1875 10.2665 8.93069 10.7237 8.47357C11.1808 8.01645 11.4376 7.39647 11.4376 6.75H9.56258ZM9.00008 7.3125C8.8509 7.3125 8.70783 7.25324 8.60234 7.14775C8.49685 7.04226 8.43758 6.89918 8.43758 6.75H6.56258C6.56258 7.39647 6.81939 8.01645 7.27651 8.47357C7.73363 8.93069 8.35362 9.1875 9.00008 9.1875V7.3125ZM8.43758 6.75C8.43758 6.60082 8.49685 6.45774 8.60234 6.35225C8.70783 6.24676 8.8509 6.1875 9.00008 6.1875V4.3125C8.35362 4.3125 7.73363 4.56931 7.27651 5.02643C6.81939 5.48355 6.56258 6.10353 6.56258 6.75H8.43758ZM9.00008 6.1875C9.14927 6.1875 9.29234 6.24676 9.39783 6.35225C9.50332 6.45774 9.56258 6.60082 9.56258 6.75H11.4376C11.4376 6.10353 11.1808 5.48355 10.7237 5.02643C10.2665 4.56931 9.64655 4.3125 9.00008 4.3125V6.1875ZM3.87458 13.392L2.97608 13.125L2.82983 13.6147L3.16283 14.0025L3.87458 13.392ZM14.1256 13.392L14.8373 14.0025L15.1703 13.6147L15.0241 13.125L14.1256 13.392ZM6.75008 12.1875H11.2501V10.3125H6.75008V12.1875ZM6.75008 10.3125C5.90209 10.3126 5.07677 10.5864 4.39682 11.0931C3.71687 11.5998 3.2186 12.3124 2.97608 13.125L4.77308 13.6597C4.9004 13.2343 5.16152 12.8613 5.51767 12.5961C5.87383 12.3309 6.30602 12.1876 6.75008 12.1875V10.3125ZM9.00008 14.8125C8.16131 14.8135 7.33231 14.6325 6.57028 14.282C5.80826 13.9315 5.13137 13.4198 4.58633 12.7822L3.16283 14.0025C3.88389 14.8454 4.77913 15.5219 5.78686 15.9855C6.7946 16.449 7.89086 16.6885 9.00008 16.6875V14.8125ZM11.2501 12.1875C12.1831 12.1875 12.9736 12.8077 13.2271 13.6597L15.0241 13.125C14.7816 12.3124 14.2833 11.5998 13.6033 11.0931C12.9234 10.5864 12.0981 10.3126 11.2501 10.3125V12.1875ZM13.4138 12.7822C12.8688 13.4198 12.1919 13.9315 11.4299 14.282C10.6679 14.6325 9.83886 14.8135 9.00008 14.8125V16.6875C10.1093 16.6885 11.2056 16.449 12.2133 15.9855C13.221 15.5219 14.1163 14.8454 14.8373 14.0025L13.4138 12.7822Z" fill="black"/>
</svg>
