<svg width="50" height="50" viewBox="108 0 24 24" fill="none" xmlns="http://www.w3.org/2000/svg">
    <path d="M113.8 2H122.2C125.4 2 128 4.6 128 7.8V16.2C128 17.7383 127.389 19.2135 126.301 20.3012C125.214 21.3889 123.738 22 122.2 22H113.8C110.6 22 108 19.4 108 16.2V7.8C108 6.26174 108.611 4.78649 109.699 3.69878C110.786 2.61107 112.262 2 113.8 2ZM113.6 4C112.645 4 111.73 4.37928 111.054 5.05442C110.379 5.72955 110 6.64522 110 7.6V16.4C110 18.39 111.61 20 113.6 20H122.4C123.355 20 124.27 19.6207 124.946 18.9456C125.621 18.2705 126 17.3548 126 16.4V7.6C126 5.61 124.39 4 122.4 4H113.6ZM123.25 5.5C123.582 5.5 123.899 5.6317 124.134 5.86612C124.368 6.10054 124.5 6.41848 124.5 6.75C124.5 7.08152 124.368 7.39946 124.134 7.63388C123.899 7.8683 123.582 8 123.25 8C122.918 8 122.601 7.8683 122.366 7.63388C122.132 7.39946 122 7.08152 122 6.75C122 6.41848 122.132 6.10054 122.366 5.86612C122.601 5.6317 122.918 5.5 123.25 5.5ZM118 7C119.326 7 120.598 7.52678 121.536 8.46447C122.473 9.40215 123 10.6739 123 12C123 13.3261 122.473 14.5979 121.536 15.5355C120.598 16.4732 119.326 17 118 17C116.674 17 115.402 16.4732 114.464 15.5355C113.527 14.5979 113 13.3261 113 12C113 10.6739 113.527 9.40215 114.464 8.46447C115.402 7.52678 116.674 7 118 7ZM118 9C117.204 9 116.441 9.31607 115.879 9.87868C115.316 10.4413 115 11.2044 115 12C115 12.7956 115.316 13.5587 115.879 14.1213C116.441 14.6839 117.204 15 118 15C118.796 15 119.559 14.6839 120.121 14.1213C120.684 13.5587 121 12.7956 121 12C121 11.2044 120.684 10.4413 120.121 9.87868C119.559 9.31607 118.796 9 118 9Z" fill="#595555"/>
</svg>
