<svg width="50" height="50" viewBox="54 0 24 24" fill="none" xmlns="http://www.w3.org/2000/svg">
    <path d="M66.5999 5.82C65.9163 5.03962 65.5396 4.03743 65.5399 3H62.4499V15.4C62.4261 16.071 62.1428 16.7066 61.6597 17.1729C61.1766 17.6393 60.5314 17.8999 59.8599 17.9C58.4399 17.9 57.2599 16.74 57.2599 15.3C57.2599 13.58 58.9199 12.29 60.6299 12.82V9.66C57.1799 9.2 54.1599 11.88 54.1599 15.3C54.1599 18.63 56.9199 21 59.8499 21C62.9899 21 65.5399 18.45 65.5399 15.3V9.01C66.7929 9.90985 68.2973 10.3926 69.8399 10.39V7.3C69.8399 7.3 67.9599 7.39 66.5999 5.82Z" fill="#595555"/>
</svg>
