<svg width="50" height="50" viewBox="162 0 24 24" fill="none" xmlns="http://www.w3.org/2000/svg">
    <path d="M176 12L172.5 14V10L176 12Z" fill="#595555" stroke="#595555" stroke-width="1.5" stroke-linecap="round" stroke-linejoin="round"/>
    <path d="M164 12.7084V11.2924C164 8.39739 164 6.94939 164.905 6.01839C165.811 5.08639 167.237 5.04639 170.088 4.96539C171.438 4.92739 172.818 4.90039 174 4.90039C175.182 4.90039 176.561 4.92739 177.912 4.96539C180.763 5.04639 182.189 5.08639 183.094 6.01839C183.999 6.95039 184 8.39839 184 11.2924V12.7074C184 15.6034 184 17.0504 183.095 17.9824C182.189 18.9134 180.764 18.9544 177.912 19.0344C176.562 19.0734 175.182 19.1004 174 19.1004C172.818 19.1004 171.439 19.0734 170.088 19.0344C167.237 18.9544 165.811 18.9144 164.905 17.9824C163.999 17.0504 164 15.6024 164 12.7084Z" stroke="#595555" stroke-width="1.5"/>
</svg>
